<?xml version="1.0" standalone="no"?>
<!DOCTYPE svg PUBLIC "-//W3C//DTD SVG 20010904//EN"
 "http://www.w3.org/TR/2001/REC-SVG-20010904/DTD/svg10.dtd">
<svg version="1.0" xmlns="http://www.w3.org/2000/svg"
 width="1728.000000pt" height="1728.000000pt" viewBox="0 0 1728.000000 1728.000000"
 preserveAspectRatio="xMidYMid meet">
<g transform="translate(0.000000,1728.000000) scale(0.337500,-0.337500)"
fill="#000000" stroke="none">
<path d="M1320 5111 c-94 -29 -177 -101 -219 -190 l-26 -56 0 -2305 0 -2305
26 -56 c33 -69 91 -129 161 -166 l53 -28 1245 0 1245 0 53 28 c70 37 128 97
161 166 l26 56 0 2305 0 2305 -26 56 c-33 69 -91 129 -161 166 l-53 28 -1230
2 c-676 1 -1241 -2 -1255 -6z m1621 -251 c21 -12 25 -40 7 -58 -17 -17 -759
-17 -776 0 -17 17 -15 45 6 57 24 14 737 15 763 1z m859 -2255 l0 -1965 -1240
0 -1240 0 0 1965 0 1965 1240 0 1240 0 0 -1965z m-1161 -2116 c102 -57 117
-185 32 -262 -68 -62 -154 -62 -222 0 -64 58 -74 138 -26 210 47 70 143 93
216 52z"/>
</g>
</svg>
